<svg width="330" height="330" viewBox="0 0 330 330" fill="none" xmlns="http://www.w3.org/2000/svg">
<circle cx="165" cy="165" r="165" fill="url(#paint0_radial_215_550)"/>
<circle cx="132.205" cy="44.2959" r="9.29588" fill="#FFFEFE"/>
<circle cx="132.205" cy="44.2959" r="9.29588" fill="#FFFEFE"/>
<circle cx="132.205" cy="44.2959" r="9.29588" fill="#FFFEFE"/>
<line x1="134.11" y1="48.7029" x2="134.11" y2="284.391" stroke="white" stroke-width="4.1315"/>
<line x1="272.598" y1="243.24" x2="59.7479" y2="119.001" stroke="white" stroke-width="4.1315"/>
<line x1="257.06" y1="113.836" x2="141.043" y2="279.183" stroke="white" stroke-width="4.1315"/>
<line x1="255.456" y1="111.059" x2="60.8765" y2="119.281" stroke="white" stroke-width="4.1315"/>
<line x1="271.911" y1="242.648" x2="133.097" y2="46.2408" stroke="white" stroke-width="4.1315"/>
<line x1="274.166" y1="243.442" x2="139.92" y2="281.81" stroke="white" stroke-width="4.1315"/>
<line x1="62.6677" y1="121.839" x2="136.663" y2="283.532" stroke="white" stroke-width="4.1315"/>
<line x1="135.724" y1="42.2956" x2="262.704" y2="107.156" stroke="white" stroke-width="4.1315"/>
<line x1="136.236" y1="45.6048" x2="60.4141" y2="120.514" stroke="white" stroke-width="4.1315"/>
<circle cx="58.3288" cy="119.324" r="10.3288" fill="#FFFEFE"/>
<circle cx="58.3288" cy="119.324" r="10.3288" fill="#FFFEFE"/>
<circle cx="58.3288" cy="119.324" r="10.3288" fill="#FFFEFE"/>
<circle cx="135.065" cy="284.671" r="10.3288" fill="#FFFEFE"/>
<circle cx="135.065" cy="284.671" r="10.3288" fill="#FFFEFE"/>
<circle cx="135.065" cy="284.671" r="10.3288" fill="#FFFEFE"/>
<circle cx="273.183" cy="242.826" r="8.67845" fill="#FFFEFE"/>
<circle cx="273.183" cy="242.826" r="8.67845" fill="#FFFEFE"/>
<circle cx="273.183" cy="242.826" r="8.67845" fill="#FFFEFE"/>
<circle cx="260.394" cy="110.365" r="8.67845" fill="#FFFEFE"/>
<circle cx="260.394" cy="110.365" r="8.67845" fill="#FFFEFE"/>
<circle cx="260.394" cy="110.365" r="8.67845" fill="#FFFEFE"/>
<circle cx="180.678" cy="113.678" r="8.67845" fill="#FFFEFE"/>
<circle cx="180.678" cy="113.678" r="8.67845" fill="#FFFEFE"/>
<circle cx="180.678" cy="113.678" r="8.67845" fill="#FFFEFE"/>
<circle cx="134.678" cy="117.678" r="8.67845" fill="#FFFEFE"/>
<circle cx="134.678" cy="117.678" r="8.67845" fill="#FFFEFE"/>
<circle cx="134.678" cy="117.678" r="8.67845" fill="#FFFEFE"/>
<circle cx="134.678" cy="161.678" r="8.67845" fill="#FFFEFE"/>
<circle cx="134.678" cy="161.678" r="8.67845" fill="#FFFEFE"/>
<circle cx="134.678" cy="161.678" r="8.67845" fill="#FFFEFE"/>
<circle cx="196.678" cy="198.678" r="8.67845" fill="#FFFEFE"/>
<circle cx="196.678" cy="198.678" r="8.67845" fill="#FFFEFE"/>
<circle cx="196.678" cy="198.678" r="8.67845" fill="#FFFEFE"/>
<circle cx="219.678" cy="167.678" r="8.67845" fill="#FFFEFE"/>
<circle cx="219.678" cy="167.678" r="8.67845" fill="#FFFEFE"/>
<circle cx="219.678" cy="167.678" r="8.67845" fill="#FFFEFE"/>
<defs>
<radialGradient id="paint0_radial_215_550" cx="0" cy="0" r="1" gradientUnits="userSpaceOnUse" gradientTransform="translate(381 260) rotate(-144.023) scale(378.746 431.194)">
<stop stop-color="#C15353"/>
<stop offset="0.75" stop-color="#5668AF"/>
</radialGradient>
</defs>
</svg>
